<svg width="21" height="21" fill="none" xmlns="http://www.w3.org/2000/svg" stroke="currentColor" stroke-width=".645"><g clip-path="url(#clip0_11_100)" fill="#7A7B7B"><path d="M17.928 9.102c-.286 0-.522-.168-.522-.387V5.772C17.39-.77 3.448-.702 3.464 5.772v2.943c0 .202-.235.387-.52.387-.287 0-.522-.168-.522-.387V5.772c0-7.719 15.926-7.702 15.926 0v2.943c.034.202-.202.387-.437.387h.017z"/><path d="M4.221 16.216H3.23c-1.8 0-3.229-1.43-3.229-3.229v-1.514A3.208 3.208 0 013.23 8.245h.992c.404 0 .757.319.757.756a.524.524 0 01-.521.522.543.543 0 01-.438-.236h-.79a2.236 2.236 0 00-2.237 2.237v1.514c0 1.227.992 2.236 2.237 2.236h.79c.085-.151.236-.235.438-.235.286 0 .521.235.521.521 0 .32-.353.673-.757.673v-.017z"/><path d="M4.978 15.695h.992V8.732h-.992v6.963zm1.48.992H4.473a.524.524 0 01-.52-.521V8.194c0-.286.235-.521.52-.521h1.985c.286 0 .521.235.521.521v7.972a.524.524 0 01-.521.521zm11.268-.471h-.992a.754.754 0 01-.757-.757c0-.286.235-.521.521-.521.202 0 .353.118.437.235h.79a2.236 2.236 0 002.238-2.236v-1.514a2.236 2.236 0 00-2.237-2.237h-.79c-.085.152-.236.236-.438.236a.524.524 0 01-.521-.522c0-.403.32-.756.757-.756h.992c1.8 0 3.229 1.43 3.229 3.229v1.513a3.238 3.238 0 01-3.23 3.313v.017z"/><path d="M14.934 15.695h.992V8.732h-.992v6.963zm1.48.992H14.43a.524.524 0 01-.522-.521V8.194c0-.286.236-.521.522-.521h1.984c.286 0 .521.235.521.521v7.972a.524.524 0 01-.52.521z"/><path d="M16.969 19.68H9.956a.524.524 0 01-.521-.52c0-.287.235-.522.521-.522h7.013a.97.97 0 00.959-.959v-1.984c0-.286.235-.522.521-.522.286 0 .521.236.521.522v2.035c-.033 1.076-.908 1.95-1.984 1.95h-.017z"/><path d="M9.2 18.688a.253.253 0 00-.236.236v.521c0 .118.118.235.235.235a.253.253 0 00.236-.235v-.521c0-.084-.034-.152-.084-.152-.034-.033-.118-.084-.152-.084zm0 1.985a1.235 1.235 0 01-1.228-1.228v-.521c0-.673.555-1.228 1.227-1.228.32 0 .64.118.875.353.235.236.353.555.353.875v.521c0 .673-.555 1.228-1.228 1.228z"/></g><defs><clipPath id="clip0_11_100"><path fill="#fff" d="M0 0h20.955v20.677H0z"/></clipPath></defs></svg>