<svg width="21" height="19" fill="none" xmlns="http://www.w3.org/2000/svg" stroke="currentColor" stroke-width=".6"><g clip-path="url(#clip0_11_63)" fill="#7D7D7D"><path d="M18.215 10.836c-.252 0-.504-.034-.74-.101-.185-.05-.32-.219-.32-.387V6.211c0-.185.135-.337.32-.387.236-.067.488-.101.74-.101 1.514 0 2.742 1.144 2.742 2.556 0 1.413-1.228 2.557-2.742 2.557zm-.168-.824h.168c1.026 0 1.867-.79 1.867-1.75 0-.958-.84-1.749-1.867-1.749h-.168v3.499z"/><path d="M16.735 16.538h-.303c-.723 0-1.311-.555-1.311-1.228V1.215c0-.672.588-1.227 1.311-1.227h.303c.723 0 1.312.555 1.312 1.227V15.31c0 .673-.589 1.228-1.312 1.228zM16.432.812c-.235 0-.437.185-.437.403V15.31c0 .218.202.403.437.403h.303c.236 0 .437-.184.437-.403V1.215c0-.218-.201-.403-.437-.403h-.303zm-13.96 9.873h-.05a16.088 16.088 0 00-1.985-.118c-.235 0-.437-.185-.437-.404V6.43c0-.218.202-.403.437-.403.64 0 1.312-.034 1.985-.118a.407.407 0 01.336.1.386.386 0 01.152.304v3.986a.36.36 0 01-.152.303.457.457 0 01-.286.1v-.016zM.858 9.743c.387.016.773.033 1.177.067V6.732c-.404.034-.79.067-1.177.067v2.944z"/><path d="M15.558 15.747a.475.475 0 01-.252-.067c-2.708-1.716-5.584-3.061-8.578-3.986a37.289 37.289 0 00-1.884-.522c-.185-.05-.37-.084-.538-.134a22.376 22.376 0 00-1.884-.37.418.418 0 01-.387-.404V6.278c0-.202.168-.387.387-.404.572-.067 1.38-.235 2.422-.487A35.097 35.097 0 0015.306.879a.44.44 0 01.454-.017.38.38 0 01.235.353v14.129a.38.38 0 01-.235.353.448.448 0 01-.202.05zM2.91 9.911c.437.067.975.185 1.598.336a8.3 8.3 0 01.538.135c.69.168 1.345.353 1.95.538a36.296 36.296 0 018.124 3.667V1.989A35.759 35.759 0 015.063 6.194c-.874.218-1.58.37-2.152.454v3.28-.017z"/><path d="M6.862 18.472H4.407c-.236 0-.438-.185-.438-.404v-7.434c0-.118.068-.235.169-.32.1-.084.235-.1.37-.084.185.034.37.085.555.135.69.168 1.345.353 1.95.538a.41.41 0 01.303.387v6.778c0 .219-.201.404-.437.404h-.017zm-2.018-.824h1.58v-6.072a30.155 30.155 0 00-1.58-.437v6.509z"/></g><defs><clipPath id="clip0_11_63"><path fill="#fff" d="M0 0h20.957v18.476H0z"/></clipPath></defs></svg>