<svg width="15" height="18" fill="none" xmlns="http://www.w3.org/2000/svg"><g clip-path="url(#clip0_11_31)"><path d="M1.662 11.343a.777.777 0 00-.167.312l-.946 2.764.043.01 2.89-.885a.746.746 0 00.32-.186l7.69-7.381-2.13-2.057-7.69 7.382-.01.041zM.522 14.72a.351.351 0 01-.164-.083c-.077-.063-.1-.157-.07-.282l.902-2.774a1.2 1.2 0 01.178-.353l.01-.042 7.807-7.485c.053-.03.15-.051.184 0l2.318 2.235c.033.052.057.146.003.177l-7.86 7.516s-.01.041-.054.03a1.924 1.924 0 01-.365.176l-2.89.885c-.053.031-.096.02-.14.01l.14-.01z" fill="#fff"/><path d="M1.662 11.343a.777.777 0 00-.167.312l-.946 2.764.043.01 2.89-.885a.746.746 0 00.32-.186l7.69-7.381-2.13-2.057-7.69 7.382-.01.041zM.522 14.72a.351.351 0 01-.164-.083c-.077-.063-.1-.157-.07-.282l.902-2.774a1.2 1.2 0 01.178-.353l.01-.042 7.807-7.485c.053-.03.15-.051.184 0l2.318 2.235c.033.052.057.146.003.177l-7.86 7.516s-.01.041-.054.03a1.924 1.924 0 01-.365.176l-2.89.885c-.053.031-.096.02-.14.01l.14-.01z" stroke="#fff" stroke-width=".364" stroke-miterlimit="2.613" stroke-linecap="round" stroke-linejoin="round"/><path d="M10.237 3.164l2.13 2.056.607-.601c.288-.238.258-.686.004-.968l-1.126-1.064c-.11-.115-.197-.136-.328-.168a.722.722 0 00-.69.185l-.607.601.01-.041zm2.114 2.316l-.044-.01-2.318-2.234c-.033-.052-.057-.146-.003-.177l.714-.663c.234-.208.58-.3.884-.226a.936.936 0 01.45.24l1.125 1.065a.927.927 0 01.003 1.321l-.714.664c-.054.03-.054.03-.097.02z" fill="#fff" stroke="#fff" stroke-width=".364" stroke-miterlimit="2.613" stroke-linecap="round" stroke-linejoin="round"/><path d="M9.577 3.796l2.13 2.057.48-.456-2.131-2.057-.48.456zm2.103 2.358l-.043-.01L9.319 3.91c-.034-.052-.057-.146-.004-.177l.66-.632c.01-.042.054-.031.098-.02l.087.02 2.318 2.234c.043.01.033.052.023.094l-.02.083-.66.632c-.01.042-.054.031-.097.02l-.044-.01zM2.06 14.08l-.043-.01-1.082-1.054C.9 12.964.91 12.922.92 12.88c.054-.03.098-.02.141-.01l1.082 1.055c.034.052.023.093.013.135-.01.042-.053.031-.097.02zm1.716-.42l-.044-.01-2.284-2.183c-.034-.052-.057-.145-.003-.176.053-.031.15-.052.184 0l2.284 2.182c.034.052.057.146.004.177-.054.03-.054.03-.097.02l-.044-.01z" fill="#fff" stroke="#fff" stroke-width=".364" stroke-miterlimit="2.613" stroke-linecap="round" stroke-linejoin="round"/></g><defs><clipPath id="clip0_11_31"><path fill="#fff" transform="rotate(13.612 1.79 14.994)" d="M0 0h10.801v15.208H0z"/></clipPath></defs></svg>