<svg width="21" height="21" fill="none" xmlns="http://www.w3.org/2000/svg" stroke="currentColor"><g clip-path="url(#clip0_11_95)"><path d="M9.65 13.98h1.397v1.465H9.65V13.98zM7.275 8.338c0-1.01.286-1.835.859-2.458.572-.624 1.364-.927 2.357-.927.927 0 1.668.27 2.223.792.556.522.842 1.212.842 2.02 0 .506-.1.91-.303 1.213-.202.303-.623.775-1.229 1.364-.455.438-.741.808-.876 1.112-.134.303-.202.757-.202 1.347H9.683c0-.674.084-1.213.236-1.617.151-.404.505-.875 1.044-1.414l.573-.556c.168-.152.303-.32.404-.505a1.81 1.81 0 00-.135-2.139c-.27-.337-.724-.505-1.364-.505-.791 0-1.33.286-1.634.875-.168.32-.269.792-.286 1.398H7.258h.017z" fill="#7A7B7B"/><path clip-rule="evenodd" d="M10.475.474c5.523 0 10.003 4.361 10.003 9.733 0 5.372-4.48 9.734-10.003 9.734C4.95 19.941.472 15.58.472 10.208c0-5.373 4.48-9.734 10.003-9.734v0z" stroke-width=".943" stroke-miterlimit="22.926"/></g><defs><clipPath id="clip0_11_95"><path fill="#fff" d="M0 0h20.933v20.398H0z"/></clipPath></defs></svg>