<svg width="21" height="19" xmlns="http://www.w3.org/2000/svg" stroke="currentColor"><g clip-path="url(#clip0_11_57)"><path d="M5.9 12.201l-2.37 1.647v1.63h16.437M.22.403l2.69 1.48.486 1.697 2.488 8.62h12.352c.79 0 3.059-6.705 1.966-6.823L3.7 3.58" stroke-width=".941" stroke-miterlimit="22.926" fill="#FFF"/><path fill-rule="evenodd" clip-rule="evenodd" d="M7.161 15.36c.857 0 1.546.706 1.546 1.58 0 .874-.689 1.58-1.546 1.58-.857 0-1.546-.706-1.546-1.58 0-.874.689-1.58 1.546-1.58zm8.504-.016c.857 0 1.546.706 1.546 1.58 0 .873-.69 1.58-1.546 1.58-.857 0-1.546-.707-1.546-1.58 0-.874.689-1.58 1.546-1.58z" fill="#7A7B7B"/></g><defs><clipPath id="clip0_11_57"><path fill="#fff" d="M0 0h20.977v18.52H0z"/></clipPath></defs></svg>