<svg width="21" height="19" fill="none" xmlns="http://www.w3.org/2000/svg" stroke="currentColor"><g clip-path="url(#clip0_11_83)" stroke-width=".943" stroke-miterlimit="22.926"><path clip-rule="evenodd" d="M2.44 4.497h16.044c1.094 0 1.97.892 1.97 1.97v9.528c0 1.094-.893 1.97-1.97 1.97H2.44a1.972 1.972 0 01-1.97-1.97V6.467c0-1.095.893-1.97 1.97-1.97v0z"/><path clip-rule="evenodd" d="M20.47 9.48h-4.158c-.96 0-1.75.791-1.75 1.75 0 .977.79 1.751 1.75 1.751h4.158V9.463v.017z"/><path fill-rule="evenodd" clip-rule="evenodd" d="M16.178 10.81c.235 0 .42.185.42.42a.416.416 0 01-.42.421.417.417 0 01-.421-.42c0-.236.185-.421.42-.421z" fill="#7D7D7D"/><path d="M5.168 4.497l7.71-3.889c.657-.336 1.448-.05 1.768.64l1.515 3.249"/></g><defs><clipPath id="clip0_11_83"><path fill="#fff" d="M0 0h20.942v18.438H0z"/></clipPath></defs></svg>