<svg width="52" height="52" fill="none" xmlns="http://www.w3.org/2000/svg"><g clip-path="url(#clip0_11_287)"><mask id="mask0_11_287" style="mask-type:luminance" maskUnits="userSpaceOnUse" x="0" y="0" width="52" height="52"><path fill="#fff" d="M0 0h52v52H0z"/></mask><g clip-path="url(#clip1_11_287)"><path clip-rule="evenodd" d="M25.925.945c13.797 0 24.98 10.886 24.98 24.314 0 13.429-11.183 24.315-24.98 24.315S.945 38.688.945 25.26C.945 11.83 12.128.944 25.925.944v0z" stroke="#6666D2" stroke-width="1.889" stroke-miterlimit="22.926"/><path d="M23.69 27.392h4.22V12.843h-4.22v14.549zm5.137 1.835h-6.055a.916.916 0 01-.918-.918V11.93c0-.508.41-.918.918-.918h6.055c.508 0 .918.41.918.918v16.38c0 .508-.41.917-.918.917zM23.69 38.09h4.22v-3.653h-4.22v3.652zm5.137 1.835h-6.055a.916.916 0 01-.918-.918V33.52c0-.508.41-.918.918-.918h6.055c.508 0 .918.41.918.918v5.488c0 .509-.41.918-.918.918z" fill="#6666D2"/></g></g><defs><clipPath id="clip0_11_287"><path fill="#fff" d="M0 0h52v52H0z"/></clipPath><clipPath id="clip1_11_287"><path fill="#fff" d="M0 0h51.851v50.514H0z"/></clipPath></defs></svg>