<?xml version="1.0" encoding="utf-8"?><svg viewBox="0 0 52 52" xmlns="http://www.w3.org/2000/svg" xmlns:xlink="http://www.w3.org/1999/xlink"><style>:root>svg{display:none}:root>svg:target{display:block}</style><svg fill="none" viewBox="0 0 21 19" id="avatar" xmlns="http://www.w3.org/2000/svg"><g clip-path="url(#aa)" clip-rule="evenodd" stroke="currentColor" stroke-width=".942" stroke-miterlimit="22.926"><path d="M10.515.471a4.25 4.25 0 0 1 4.256 4.256 4.25 4.25 0 0 1-4.256 4.257 4.25 4.25 0 0 1-4.257-4.257A4.25 4.25 0 0 1 10.515.471ZM10.481 17.967H.471c0-6.678 5.417-8.075 10.01-8.075 5.535 0 10.01 1.901 10.01 8.075H10.48Z"/></g><defs><clipPath id="aa"><path fill="#fff" d="M0 0h20.962v18.438H0z"/></clipPath></defs></svg><svg fill="none" viewBox="0 0 17 17" id="cansel" xmlns="http://www.w3.org/2000/svg"><circle cx="8.5" cy="8.5" r="7.987" transform="rotate(.089 8.5 8.5)" stroke="#656565"/><path d="m5.946 5.946 4.995 4.803M10.94 5.95 5.95 10.75" stroke="#656565" stroke-linecap="round"/></svg><svg fill="none" viewBox="0 0 13 14" id="cansel_table" xmlns="http://www.w3.org/2000/svg"><path d="m1 1.23 11.143 11.54M12.143 1.24 1.009 12.77" stroke="#fff" stroke-linecap="round"/></svg><svg fill="none" viewBox="0 0 11 11" id="create" xmlns="http://www.w3.org/2000/svg"><path d="M10.293 4.08v2.451H.547v-2.45h9.746ZM6.758.223v10.351H4.092V.223h2.666Z" fill="#fff"/></svg><svg fill="none" viewBox="0 0 21 21" id="diagram" xmlns="http://www.w3.org/2000/svg"><g clip-path="url(#ea)" clip-rule="evenodd" stroke="currentColor" stroke-width=".941" stroke-miterlimit="22.926"><path d="M9.945 11.086h9.473c0 5.207-4.24 9.449-9.473 9.449-5.233 0-9.474-4.225-9.474-9.449 0-5.207 4.24-9.448 9.474-9.448v9.448Z"/><path d="M11.98 9.017V.483a8.53 8.53 0 0 1 8.549 8.534H11.98Z"/></g><defs><clipPath id="ea"><path fill="#fff" d="M0 0h21v21H0z"/></clipPath></defs></svg><svg fill="none" stroke="currentColor" viewBox="0 0 21 19" id="exit" xmlns="http://www.w3.org/2000/svg"><g clip-path="url(#fa)" stroke-width=".945" stroke-miterlimit="22.926"><path d="M13.562 18.047H.474V.472h13.088M6.984 9.26h13.308M15.232 4.183l5.01 5.077-4.96 5.043"/></g><defs><clipPath id="fa"><path fill="#fff" d="M0 0h20.901v18.52H0z"/></clipPath></defs></svg><svg fill="none" stroke="currentColor" stroke-width=".645" viewBox="0 0 21 21" id="headset" xmlns="http://www.w3.org/2000/svg"><g clip-path="url(#ga)" fill="#7A7B7B"><path d="M17.928 9.102c-.286 0-.522-.168-.522-.387V5.772C17.39-.77 3.448-.702 3.464 5.772v2.943c0 .202-.235.387-.52.387-.287 0-.522-.168-.522-.387V5.772c0-7.719 15.926-7.702 15.926 0v2.943c.034.202-.202.387-.437.387h.017Z"/><path d="M4.221 16.216H3.23c-1.8 0-3.229-1.43-3.229-3.229v-1.514c0-1.799 1.43-3.228 3.229-3.228h.992c.404 0 .757.319.757.756a.524.524 0 0 1-.521.522.543.543 0 0 1-.438-.236h-.79a2.236 2.236 0 0 0-2.237 2.237v1.514c0 1.227.992 2.236 2.237 2.236h.79c.085-.151.236-.235.438-.235.286 0 .521.235.521.521 0 .32-.353.673-.757.673v-.017Z"/><path d="M4.978 15.695h.992V8.732h-.992v6.963Zm1.48.992H4.473a.524.524 0 0 1-.52-.521V8.194c0-.286.235-.521.52-.521h1.985c.286 0 .521.235.521.521v7.972a.524.524 0 0 1-.521.521ZM17.726 16.216h-.992a.754.754 0 0 1-.757-.757c0-.286.235-.521.521-.521.202 0 .353.118.437.235h.79a2.236 2.236 0 0 0 2.238-2.236v-1.514a2.236 2.236 0 0 0-2.237-2.237h-.79c-.085.152-.236.236-.438.236a.524.524 0 0 1-.521-.522c0-.403.32-.756.757-.756h.992c1.8 0 3.229 1.43 3.229 3.229v1.513a3.238 3.238 0 0 1-3.23 3.313v.017Z"/><path d="M14.934 15.695h.992V8.732h-.992v6.963Zm1.48.992H14.43a.524.524 0 0 1-.522-.521V8.194c0-.286.236-.521.522-.521h1.984c.286 0 .521.235.521.521v7.972a.524.524 0 0 1-.52.521Z"/><path d="M16.969 19.68H9.956a.524.524 0 0 1-.521-.52c0-.287.235-.522.521-.522h7.013a.97.97 0 0 0 .959-.959v-1.984c0-.286.235-.522.521-.522.286 0 .521.236.521.522v2.035c-.033 1.076-.908 1.95-1.984 1.95h-.017Z"/><path d="M9.2 18.688a.253.253 0 0 0-.236.236v.521c0 .118.118.235.235.235a.253.253 0 0 0 .236-.235v-.521c0-.084-.034-.152-.084-.152-.034-.033-.118-.084-.152-.084Zm0 1.985a1.235 1.235 0 0 1-1.228-1.228v-.521c0-.673.555-1.228 1.227-1.228.32 0 .64.118.875.353.235.236.353.555.353.875v.521c0 .673-.555 1.228-1.228 1.228Z"/></g><defs><clipPath id="ga"><path fill="#fff" d="M0 0h20.955v20.677H0z"/></clipPath></defs></svg><svg fill="none" stroke="currentColor" viewBox="0 0 21 19" id="home" xmlns="http://www.w3.org/2000/svg"><g clip-path="url(#ha)"><path d="M16.992 17.99a.64.64 0 0 0 .64-.64v-6.915h1.699c.622 0 1.127-.504 1.127-1.127 0-.353-.168-.673-.42-.875-5.082-4.408-4.644-4.02-8.85-7.671a1.103 1.103 0 0 0-1.464 0L.841 8.467a1.123 1.123 0 0 0-.32 1.245c.169.437.59.723 1.06.723h1.7v6.915c0 .353.286.64.656.64h3.819v-5.031c0-.707.572-1.295 1.278-1.295h2.827c.707 0 1.295.572 1.295 1.295v5.03h3.836Z" stroke-width=".942" stroke-miterlimit="10"/></g><defs><clipPath id="ha"><path fill="#fff" d="M0 0h20.946v18.465H0z"/></clipPath></defs></svg><svg fill="none" stroke="currentColor" stroke-width=".6" viewBox="0 0 21 19" id="megaphone" xmlns="http://www.w3.org/2000/svg"><g clip-path="url(#ia)" fill="#7D7D7D"><path d="M18.215 10.836c-.252 0-.504-.034-.74-.101-.185-.05-.32-.219-.32-.387V6.211c0-.185.135-.337.32-.387.236-.067.488-.101.74-.101 1.514 0 2.742 1.144 2.742 2.556 0 1.413-1.228 2.557-2.742 2.557Zm-.168-.824h.168c1.026 0 1.867-.79 1.867-1.75 0-.958-.84-1.749-1.867-1.749h-.168V10.012Z"/><path d="M16.735 16.538h-.303c-.723 0-1.311-.555-1.311-1.228V1.215c0-.672.588-1.227 1.311-1.227h.303c.723 0 1.312.555 1.312 1.227V15.31c0 .673-.589 1.228-1.312 1.228ZM16.432.812c-.235 0-.437.185-.437.403V15.31c0 .218.202.403.437.403h.303c.236 0 .437-.184.437-.403V1.215c0-.218-.201-.403-.437-.403h-.303ZM2.472 10.685h-.05a16.088 16.088 0 0 0-1.985-.118c-.235 0-.437-.185-.437-.404V6.43c0-.218.202-.403.437-.403.64 0 1.312-.034 1.985-.118a.407.407 0 0 1 .336.1c.101.085.152.186.152.304v3.986a.36.36 0 0 1-.152.303.457.457 0 0 1-.286.1v-.016ZM.858 9.743c.387.016.773.033 1.177.067V6.732c-.404.034-.79.067-1.177.067v2.944Z"/><path d="M15.558 15.747a.475.475 0 0 1-.252-.067c-2.708-1.716-5.584-3.061-8.578-3.986a37.289 37.289 0 0 0-1.884-.522c-.185-.05-.37-.084-.538-.134a22.376 22.376 0 0 0-1.884-.37.418.418 0 0 1-.387-.404V6.278c0-.202.168-.387.387-.404.572-.067 1.38-.235 2.422-.487A35.097 35.097 0 0 0 15.306.879a.44.44 0 0 1 .454-.017.38.38 0 0 1 .235.353v14.129a.38.38 0 0 1-.235.353.448.448 0 0 1-.202.05ZM2.91 9.911c.437.067.975.185 1.598.336.168.034.353.084.538.135.69.168 1.345.353 1.95.538a36.296 36.296 0 0 1 8.124 3.667V1.989A35.759 35.759 0 0 1 5.063 6.194c-.874.218-1.58.37-2.152.454v3.28-.017Z"/><path d="M6.862 18.472H4.407c-.236 0-.438-.185-.438-.404v-7.434c0-.118.068-.235.169-.32.1-.084.235-.1.37-.084.185.034.37.085.555.135.69.168 1.345.353 1.95.538a.41.41 0 0 1 .303.387v6.778c0 .219-.201.404-.437.404h-.017Zm-2.018-.824h1.58v-6.072a30.155 30.155 0 0 0-1.58-.437v6.509Z"/></g><defs><clipPath id="ia"><path fill="#fff" d="M0 0h20.957v18.476H0z"/></clipPath></defs></svg><svg fill="none" viewBox="0 0 24 18" id="message" xmlns="http://www.w3.org/2000/svg"><path d="M21.33 0H3.1a1.887 1.887 0 0 0-1.887 1.887v14.226C1.213 17.155 2.058 18 3.1 18h18.23a1.887 1.887 0 0 0 1.886-1.887V1.887A1.887 1.887 0 0 0 21.33 0Z" fill="#7A7B7B"/><path d="m1 4.529 9.78 7.17c.738.541 1.952.541 2.69 0l9.96-7.302" stroke="#fff" stroke-width=".755" stroke-miterlimit="22.926"/></svg><svg fill="none" viewBox="0 0 13 13" id="message_notification" xmlns="http://www.w3.org/2000/svg"><path d="M11.5 6.5a5 5 0 1 0-10 0 5 5 0 0 0 10 0Z" fill="#E42626" stroke="#fff" stroke-width="3"/></svg><svg fill="none" viewBox="0 0 15 18" id="pencil" xmlns="http://www.w3.org/2000/svg"><g clip-path="url(#la)"><path d="M1.662 11.343a.777.777 0 0 0-.167.312l-.946 2.764.043.01 2.89-.885a.746.746 0 0 0 .32-.186l7.69-7.381-2.13-2.057-7.69 7.382-.01.041ZM.522 14.72a.351.351 0 0 1-.164-.083c-.077-.063-.1-.157-.07-.282l.902-2.774a1.2 1.2 0 0 1 .178-.353l.01-.042 7.807-7.485c.053-.03.15-.051.184 0l2.318 2.235c.033.052.057.146.003.177l-7.86 7.516s-.01.041-.054.03a1.924 1.924 0 0 1-.365.176l-2.89.885c-.053.031-.096.02-.14.01l.14-.01Z" fill="#fff"/><path d="M1.662 11.343a.777.777 0 0 0-.167.312l-.946 2.764.043.01 2.89-.885a.746.746 0 0 0 .32-.186l7.69-7.381-2.13-2.057-7.69 7.382-.01.041ZM.522 14.72a.351.351 0 0 1-.164-.083c-.077-.063-.1-.157-.07-.282l.902-2.774a1.2 1.2 0 0 1 .178-.353l.01-.042 7.807-7.485c.053-.03.15-.051.184 0l2.318 2.235c.033.052.057.146.003.177l-7.86 7.516s-.01.041-.054.03a1.924 1.924 0 0 1-.365.176l-2.89.885c-.053.031-.096.02-.14.01l.14-.01Z" stroke="#fff" stroke-width=".364" stroke-miterlimit="2.613" stroke-linecap="round" stroke-linejoin="round"/><path d="m10.237 3.164 2.13 2.056.607-.601c.288-.238.258-.686.004-.968l-1.126-1.064c-.11-.115-.197-.136-.328-.168a.722.722 0 0 0-.69.185l-.607.601.01-.041Zm2.114 2.316-.044-.01-2.318-2.234c-.033-.052-.057-.146-.003-.177l.714-.663c.234-.208.58-.3.884-.226a.936.936 0 0 1 .45.24l1.125 1.065a.927.927 0 0 1 .003 1.321l-.714.664c-.054.03-.054.03-.097.02Z" fill="#fff" stroke="#fff" stroke-width=".364" stroke-miterlimit="2.613" stroke-linecap="round" stroke-linejoin="round"/><path d="m9.577 3.796 2.13 2.057.48-.456-2.131-2.057-.48.456Zm2.103 2.358-.043-.01L9.319 3.91c-.034-.052-.057-.146-.004-.177l.66-.632c.01-.042.054-.031.098-.02l.087.02 2.318 2.234c.043.01.033.052.023.094l-.02.083-.66.632c-.01.042-.054.031-.097.02l-.044-.01ZM2.06 14.08l-.043-.01-1.082-1.054C.9 12.964.91 12.922.92 12.88c.054-.03.098-.02.141-.01l1.082 1.055c.034.052.023.093.013.135-.01.042-.053.031-.097.02ZM3.776 13.66l-.044-.01-2.284-2.183c-.034-.052-.057-.145-.003-.176.053-.031.15-.052.184 0l2.284 2.182c.034.052.057.146.004.177-.054.03-.054.03-.097.02l-.044-.01Z" fill="#fff" stroke="#fff" stroke-width=".364" stroke-miterlimit="2.613" stroke-linecap="round" stroke-linejoin="round"/></g><defs><clipPath id="la"><path fill="#fff" transform="rotate(13.612 1.79 14.994)" d="M0 0h10.801v15.208H0z"/></clipPath></defs></svg><svg fill="none" stroke="currentColor" viewBox="0 0 21 21" id="question" xmlns="http://www.w3.org/2000/svg"><g clip-path="url(#ma)"><path d="M9.65 13.98h1.397v1.465H9.65V13.98ZM7.275 8.338c0-1.01.286-1.835.859-2.458.572-.624 1.364-.927 2.357-.927.927 0 1.668.27 2.223.792.556.522.842 1.212.842 2.02 0 .506-.1.91-.303 1.213-.202.303-.623.775-1.229 1.364-.455.438-.741.808-.876 1.112-.134.303-.202.757-.202 1.347H9.683c0-.674.084-1.213.236-1.617.151-.404.505-.875 1.044-1.414l.573-.556c.168-.152.303-.32.404-.505a1.81 1.81 0 0 0-.135-2.139c-.27-.337-.724-.505-1.364-.505-.791 0-1.33.286-1.634.875-.168.32-.269.792-.286 1.398H7.258h.017Z" fill="#7A7B7B"/><path clip-rule="evenodd" d="M10.475.474c5.523 0 10.003 4.361 10.003 9.733 0 5.372-4.48 9.734-10.003 9.734C4.95 19.941.472 15.58.472 10.208c0-5.373 4.48-9.734 10.003-9.734Z" stroke-width=".943" stroke-miterlimit="22.926"/></g><defs><clipPath id="ma"><path fill="#fff" d="M0 0h20.933v20.398H0z"/></clipPath></defs></svg><svg stroke="currentColor" viewBox="0 0 21 19" id="truck" xmlns="http://www.w3.org/2000/svg"><g clip-path="url(#na)"><path d="m5.9 12.201-2.37 1.647v1.63h16.437M.22.403l2.69 1.48.486 1.697L5.884 12.2h12.352c.79 0 3.059-6.705 1.966-6.823L3.7 3.58" stroke-width=".941" stroke-miterlimit="22.926" fill="#FFF"/><path fill-rule="evenodd" clip-rule="evenodd" d="M7.161 15.36c.857 0 1.546.706 1.546 1.58 0 .874-.689 1.58-1.546 1.58-.857 0-1.546-.706-1.546-1.58 0-.874.689-1.58 1.546-1.58ZM15.665 15.344c.857 0 1.546.706 1.546 1.58 0 .873-.69 1.58-1.546 1.58-.857 0-1.546-.707-1.546-1.58 0-.874.689-1.58 1.546-1.58Z" fill="#7A7B7B"/></g><defs><clipPath id="na"><path fill="#fff" d="M0 0h20.977v18.52H0z"/></clipPath></defs></svg><svg fill="none" stroke="currentColor" viewBox="0 0 21 19" id="wallet" xmlns="http://www.w3.org/2000/svg"><g clip-path="url(#oa)" stroke-width=".943" stroke-miterlimit="22.926"><path clip-rule="evenodd" d="M2.44 4.497h16.044c1.094 0 1.97.892 1.97 1.97v9.528c0 1.094-.893 1.97-1.97 1.97H2.44a1.972 1.972 0 0 1-1.97-1.97V6.467c0-1.095.893-1.97 1.97-1.97Z"/><path clip-rule="evenodd" d="M20.47 9.48h-4.158c-.96 0-1.75.791-1.75 1.75 0 .977.79 1.751 1.75 1.751h4.158V9.463v.017Z"/><path fill-rule="evenodd" clip-rule="evenodd" d="M16.178 10.81c.235 0 .42.185.42.42 0 .236-.185.421-.42.421a.417.417 0 0 1-.421-.42c0-.236.185-.421.42-.421Z" fill="#7D7D7D"/><path d="m5.168 4.497 7.71-3.889c.657-.336 1.448-.05 1.768.64l1.515 3.249"/></g><defs><clipPath id="oa"><path fill="#fff" d="M0 0h20.942v18.438H0z"/></clipPath></defs></svg><svg fill="none" viewBox="0 0 52 52" id="warning" xmlns="http://www.w3.org/2000/svg"><g clip-path="url(#pa)"><mask id="pb" style="mask-type:luminance" maskUnits="userSpaceOnUse" x="0" y="0" width="52" height="52"><path fill="#fff" d="M0 0h52v52H0z"/></mask><g clip-path="url(#pc)"><path clip-rule="evenodd" d="M25.925.945c13.797 0 24.98 10.886 24.98 24.314 0 13.429-11.183 24.315-24.98 24.315S.945 38.688.945 25.26C.945 11.83 12.128.944 25.925.944Z" stroke="#6666D2" stroke-width="1.889" stroke-miterlimit="22.926"/><path d="M23.69 27.392h4.22V12.843h-4.22v14.549Zm5.137 1.835h-6.055a.916.916 0 0 1-.918-.918V11.93c0-.508.41-.918.918-.918h6.055c.508 0 .918.41.918.918v16.38c0 .508-.41.917-.918.917ZM23.69 38.09h4.22v-3.653h-4.22v3.652Zm5.137 1.835h-6.055a.916.916 0 0 1-.918-.918V33.52c0-.508.41-.918.918-.918h6.055c.508 0 .918.41.918.918v5.488c0 .509-.41.918-.918.918Z" fill="#6666D2"/></g></g><defs><clipPath id="pa"><path fill="#fff" d="M0 0h52v52H0z"/></clipPath><clipPath id="pc"><path fill="#fff" d="M0 0h51.851v50.514H0z"/></clipPath></defs></svg></svg>